<?xml version="1.0" encoding="UTF-8" standalone="no"?>
<svg
   width="27"
   height="27"
   viewBox="0 0 27 27"
   fill="none"
   version="1.1"
   id="svg147"
   sodipodi:docname="club.svg"
   xmlns:inkscape="http://www.inkscape.org/namespaces/inkscape"
   xmlns:sodipodi="http://sodipodi.sourceforge.net/DTD/sodipodi-0.dtd"
   xmlns="http://www.w3.org/2000/svg"
   xmlns:svg="http://www.w3.org/2000/svg">
  <sodipodi:namedview
     id="namedview149"
     pagecolor="#ffffff"
     bordercolor="#000000"
     borderopacity="0.25"
     inkscape:showpageshadow="2"
     inkscape:pageopacity="0.0"
     inkscape:pagecheckerboard="0"
     inkscape:deskcolor="#d1d1d1"
     showgrid="false" />
  <g
     clip-path="url(#clip0_39_5156)"
     id="g140">
    <path
       d="m 7.02,23.2199 c 3.877,0 7.02,-3.1429 7.02,-7.02 0,-3.877 -3.143,-7.01997 -7.02,-7.01997 -3.87704,0 -7.02,3.14297 -7.02,7.01997 0,3.8771 3.14296,7.02 7.02,7.02 z"
       fill="#000000"
       id="path132" />
    <path
       d="m 13.5,14.04 c 3.877,0 7.02,-3.143 7.02,-7.02 C 20.52,3.14296 17.377,0 13.5,0 9.62294,0 6.47998,3.14296 6.47998,7.02 c 0,3.877 3.14296,7.02 7.02002,7.02 z"
       fill="#000000"
       id="path134" />
    <path
       d="m 19.98,23.2199 c 3.877,0 7.02,-3.1429 7.02,-7.02 0,-3.877 -3.143,-7.01997 -7.02,-7.01997 -3.8771,0 -7.02,3.14297 -7.02,7.01997 0,3.8771 3.1429,7.02 7.02,7.02 z"
       fill="#000000"
       id="path136" />
    <path
       d="M 13.5,21.6 16.2,27 H 10.8 Z"
       fill="#000000"
       id="path138" />
  </g>
  <defs
     id="defs145">
    <clipPath
       id="clip0_39_5156">
      <rect
         width="27"
         height="27"
         fill="#ffffff"
         id="rect142"
         x="0"
         y="0" />
    </clipPath>
  </defs>
</svg>
