<?xml version="1.0" encoding="UTF-8" standalone="no"?>
<svg
   width="27"
   height="27"
   viewBox="0 0 27 27"
   fill="none"
   version="1.1"
   id="svg610"
   sodipodi:docname="heart.svg"
   xmlns:inkscape="http://www.inkscape.org/namespaces/inkscape"
   xmlns:sodipodi="http://sodipodi.sourceforge.net/DTD/sodipodi-0.dtd"
   xmlns="http://www.w3.org/2000/svg"
   xmlns:svg="http://www.w3.org/2000/svg">
  <sodipodi:namedview
     id="namedview612"
     pagecolor="#ffffff"
     bordercolor="#000000"
     borderopacity="0.25"
     inkscape:showpageshadow="2"
     inkscape:pageopacity="0.0"
     inkscape:pagecheckerboard="0"
     inkscape:deskcolor="#d1d1d1"
     showgrid="false" />
  <g
     clip-path="url(#clip0_39_5145)"
     id="g603">
    <path
       d="m 7.83,15.66 c 4.3244,0 7.83,-3.5056 7.83,-7.83 C 15.66,3.50561 12.1544,0 7.83,0 3.50561,0 0,3.50561 0,7.83 c 0,4.3244 3.50561,7.83 7.83,7.83 z"
       fill="#a31414"
       id="path597" />
    <path
       d="M 19.17,15.66 C 23.4944,15.66 27,12.1544 27,7.83 27,3.50561 23.4944,0 19.17,0 c -4.3244,0 -7.83,3.50561 -7.83,7.83 0,4.3244 3.5056,7.83 7.83,7.83 z"
       fill="#a31414"
       id="path599" />
    <path
       d="M 13.5,2.43005 24.975,13.0951 13.5,27.0001 2.02502,13.0951 Z"
       fill="#a31414"
       id="path601" />
  </g>
  <defs
     id="defs608">
    <clipPath
       id="clip0_39_5145">
      <rect
         width="27"
         height="27"
         fill="#ffffff"
         id="rect605"
         x="0"
         y="0" />
    </clipPath>
  </defs>
</svg>
