<?xml version="1.0" encoding="UTF-8" standalone="no"?>
<svg
   width="45"
   height="46"
   viewBox="0 0 45 46"
   fill="none"
   version="1.1"
   id="svg179"
   sodipodi:docname="Group 2.svg"
   xmlns:inkscape="http://www.inkscape.org/namespaces/inkscape"
   xmlns:sodipodi="http://sodipodi.sourceforge.net/DTD/sodipodi-0.dtd"
   xmlns="http://www.w3.org/2000/svg"
   xmlns:svg="http://www.w3.org/2000/svg">
  <sodipodi:namedview
     id="namedview181"
     pagecolor="#ffffff"
     bordercolor="#000000"
     borderopacity="0.25"
     inkscape:showpageshadow="2"
     inkscape:pageopacity="0.0"
     inkscape:pagecheckerboard="0"
     inkscape:deskcolor="#d1d1d1"
     showgrid="false" />
  <path
     d="m 37.2118,10.5263 c 0,-1.50071 -1.2121,-2.71244 -2.702,-2.71244 -1.4901,0 -2.7033,1.21173 -2.7033,2.71244 0,1.4951 1.2132,2.7069 2.7033,2.7069 1.4899,0 2.702,-1.2118 2.702,-2.7069 z"
     fill="url(#paint0_linear_72_14)"
     id="path132"
     style="fill:url(#paint0_linear_72_14)" />
  <path
     d="m 40.8123,31.699 c -0.1001,2.2014 -0.467,3.3975 -0.7717,4.1919 -0.4092,1.0533 -0.8973,1.8064 -1.689,2.5964 -0.7829,0.79 -1.5334,1.2787 -2.5832,1.6848 -0.7916,0.3102 -1.9881,0.6795 -4.182,0.7844 -2.3718,0.1049 -3.0746,0.1272 -9.0892,0.1272 -6.009,0 -6.7174,-0.0223 -9.0892,-0.1272 C 11.2142,40.8516 10.0232,40.4823 9.23148,40.1721 8.17625,39.766 7.43127,39.2773 6.644,38.4873 5.85114,37.6973 5.36302,36.9442 4.95938,35.8909 4.65464,35.0965 4.28219,33.9004 4.18762,31.699 4.07203,29.319 4.05085,28.6027 4.05085,22.5798 c 0,-6.0352 0.02118,-6.746 0.13677,-9.1259 C 4.28219,11.2525 4.65464,10.0575 4.95938,9.25634 5.36302,8.2042 5.85114,7.45549 6.644,6.66552 7.43127,5.87673 8.17625,5.38685 9.23148,4.97631 10.0232,4.665 11.2142,4.30124 13.408,4.19638 c 2.3718,-0.10493 3.0802,-0.13171 9.0892,-0.13171 6.0146,0 6.7174,0.02678 9.0892,0.13171 2.1939,0.10486 3.3904,0.46862 4.182,0.77993 1.0498,0.41054 1.8003,0.90042 2.5832,1.68921 0.7917,0.78997 1.2798,1.53868 1.689,2.59082 0.3047,0.80116 0.6716,1.99616 0.7717,4.19756 0.1101,2.3799 0.1368,3.0907 0.1368,9.1259 0,6.0229 -0.0267,6.7392 -0.1368,9.1192 z M 44.8632,13.2687 C 44.7531,10.8631 44.375,9.21952 43.8135,7.78804 43.242,6.30293 42.4758,5.04434 41.2215,3.78575 39.9728,2.53277 38.7185,1.76398 37.2385,1.18381 35.8063,0.625893 34.1739,0.242039 31.7754,0.137184 29.3769,0.0211182 28.6108,-5.72205e-5 22.4972,-5.72205e-5 16.3892,-5.72205e-5 15.6175,0.0211182 13.219,0.137184 10.826,0.242039 9.19478,0.625893 7.75593,1.18381 6.28147,1.76398 5.02718,2.53277 3.77847,3.78575 2.52418,5.04434 1.75801,6.30293 1.1809,7.78804 0.624895,9.21952 0.246855,10.8631 0.131184,13.2687 0.0266871,15.6754 0,16.4453 0,22.5798 c 0,6.1289 0.0266871,6.8976 0.131184,9.3043 0.115671,2.4012 0.493711,4.0436 1.049716,5.4819 0.57711,1.4795 1.34328,2.7437 2.59757,3.9966 1.24871,1.253 2.503,2.0274 3.97746,2.6065 1.43885,0.5578 3.07007,0.9373 5.46307,1.0477 2.3985,0.1105 3.1702,0.1373 9.2782,0.1373 6.1136,0 6.8797,-0.0268 9.2782,-0.1373 2.3985,-0.1104 4.0309,-0.4899 5.4631,-1.0477 1.48,-0.5791 2.7343,-1.3535 3.983,-2.6065 1.2543,-1.2529 2.0205,-2.5171 2.592,-3.9966 0.5615,-1.4383 0.9396,-3.0807 1.0497,-5.4819 C 44.9733,29.4774 45,28.7087 45,22.5798 45,16.4453 44.9733,15.6754 44.8632,13.2687 Z"
     fill="url(#paint1_linear_72_14)"
     id="path134"
     style="fill:url(#paint1_linear_72_14)" />
  <path
     d="m 22.4972,30.099 c -4.1399,0 -7.4991,-3.3652 -7.4991,-7.5192 0,-4.1607 3.3592,-7.5303 7.4991,-7.5303 4.141,0 7.5046,3.3696 7.5046,7.5303 0,4.154 -3.3636,7.5192 -7.5046,7.5192 z m 0,-19.1198 c -6.3816,0 -11.5499,5.1972 -11.5499,11.6006 0,6.3978 5.1683,11.5895 11.5499,11.5895 6.3815,0 11.5555,-5.1917 11.5555,-11.5895 0,-6.4034 -5.174,-11.6006 -11.5555,-11.6006 z"
     fill="url(#paint2_linear_72_14)"
     id="path136"
     style="fill:url(#paint2_linear_72_14)" />
  <defs
     id="defs177">
    <linearGradient
       id="paint0_linear_72_14"
       x1="0.40589499"
       y1="44.687302"
       x2="41.391602"
       y2="3.84166"
       gradientUnits="userSpaceOnUse">
      <stop
         stop-color="#FFD521"
         id="stop138" />
      <stop
         offset="0.05"
         stop-color="#FFD521"
         id="stop140" />
      <stop
         offset="0.501119"
         stop-color="#F50000"
         id="stop142" />
      <stop
         offset="0.95"
         stop-color="#B900B4"
         id="stop144" />
      <stop
         offset="0.950079"
         stop-color="#B900B4"
         id="stop146" />
      <stop
         offset="1"
         stop-color="#B900B4"
         id="stop148" />
    </linearGradient>
    <linearGradient
       id="paint1_linear_72_14"
       x1="0.40589401"
       y1="44.743401"
       x2="41.425301"
       y2="3.8640599"
       gradientUnits="userSpaceOnUse">
      <stop
         stop-color="#FFD521"
         id="stop151" />
      <stop
         offset="0.05"
         stop-color="#FFD521"
         id="stop153" />
      <stop
         offset="0.501119"
         stop-color="#F50000"
         id="stop155" />
      <stop
         offset="0.95"
         stop-color="#B900B4"
         id="stop157" />
      <stop
         offset="0.950079"
         stop-color="#B900B4"
         id="stop159" />
      <stop
         offset="1"
         stop-color="#B900B4"
         id="stop161" />
    </linearGradient>
    <linearGradient
       id="paint2_linear_72_14"
       x1="0.41646799"
       y1="44.744499"
       x2="41.4259"
       y2="3.87501"
       gradientUnits="userSpaceOnUse">
      <stop
         stop-color="#FFD521"
         id="stop164" />
      <stop
         offset="0.05"
         stop-color="#FFD521"
         id="stop166" />
      <stop
         offset="0.501119"
         stop-color="#F50000"
         id="stop168" />
      <stop
         offset="0.95"
         stop-color="#B900B4"
         id="stop170" />
      <stop
         offset="0.950079"
         stop-color="#B900B4"
         id="stop172" />
      <stop
         offset="1"
         stop-color="#B900B4"
         id="stop174" />
    </linearGradient>
  </defs>
</svg>
