<?xml version="1.0" encoding="UTF-8" standalone="no"?>
<svg
   width="20.480082"
   height="20.656851"
   viewBox="0 0 20.480082 20.656851"
   fill="none"
   version="1.1"
   id="svg8"
   xmlns="http://www.w3.org/2000/svg"
   xmlns:svg="http://www.w3.org/2000/svg">
  <defs
     id="defs12" />
  <path
     d="m 3.8760098,6.9770636 c 1.85258,5.0538004 3.77048,7.0702004 8.6494802,9.2179004 l -2.1144,2.9696 C 4.8083898,16.482164 2.0177998,11.960664 0.70351977,8.4321636 Z"
     fill="#162f79"
     id="path2" />
  <path
     d="m 5.4300898,1.3572762e-5 c 0.9906,-0.0038700028 1.7438,0.820409997238 1.6763,1.753780027238 -0.1063,1.46882 0.0069,2.52854 0.3115,3.84211 0.1674,0.72156 -0.2112,1.45436 -0.8128,1.92636 -0.8109,0.6363 -1.4304,1.4469 -1.9227,2.1448 -0.68246,0.9672004 -3.03095,0.8977004 -3.55033,-0.156 -1.06738003,-2.1656 -1.79074003,-6.15531 -0.23205003,-8.85085003 0.24483003,-0.42341 0.73780003,-0.64537 1.24862003,-0.64736 z"
     fill="#162f79"
     id="path4" />
  <path
     d="m 20.46719,16.025264 c 0.1232,-0.9283 -0.6527,-1.7336 -1.6419,-1.7825 -1.5568,-0.077 -2.6571,-0.3105 -4.0013,-0.7541 -0.7384,-0.2437 -1.5542,0.0231 -2.1228,0.5304 -0.7662,0.6837 -1.6929,1.167 -2.4857,1.5447 -1.0988002,0.5235 -1.3082002,2.7337 -0.2630002,3.3473 2.1481002,1.2612 6.2550002,2.4192 9.2759002,1.282 0.4746,-0.1786 0.7672,-0.6141 0.8307,-1.0928 z"
     fill="#162f79"
     id="path6" />
</svg>
