<?xml version="1.0" encoding="UTF-8" standalone="no"?>
<svg
   width="29"
   height="29"
   viewBox="0 0 29 29"
   fill="none"
   version="1.1"
   id="svg424"
   sodipodi:docname="spade.svg"
   xmlns:inkscape="http://www.inkscape.org/namespaces/inkscape"
   xmlns:sodipodi="http://sodipodi.sourceforge.net/DTD/sodipodi-0.dtd"
   xmlns="http://www.w3.org/2000/svg"
   xmlns:svg="http://www.w3.org/2000/svg">
  <sodipodi:namedview
     id="namedview426"
     pagecolor="#ffffff"
     bordercolor="#000000"
     borderopacity="0.25"
     inkscape:showpageshadow="2"
     inkscape:pageopacity="0.0"
     inkscape:pagecheckerboard="0"
     inkscape:deskcolor="#d1d1d1"
     showgrid="false" />
  <g
     clip-path="url(#clip0_39_5151)"
     id="g417">
    <path
       d="M 14.5,0 24.94,9.57 14.5,20.01 4.06,9.57 Z"
       fill="#000000"
       id="path409" />
    <path
       d="m 8.69997,23.055 c 4.16423,0 7.54003,-3.3758 7.54003,-7.54 0,-4.1643 -3.3758,-7.54002 -7.54003,-7.54002 -4.16422,0 -7.54,3.37572 -7.54,7.54002 0,4.1642 3.37578,7.54 7.54,7.54 z"
       fill="#000000"
       id="path411" />
    <path
       d="m 20.3,23.055 c 4.1642,0 7.54,-3.3758 7.54,-7.54 0,-4.1643 -3.3758,-7.54002 -7.54,-7.54002 -4.1642,0 -7.54,3.37572 -7.54,7.54002 0,4.1642 3.3758,7.54 7.54,7.54 z"
       fill="#000000"
       id="path413" />
    <path
       d="M 14.5,23.2 17.4,29 H 11.6 Z"
       fill="#000000"
       id="path415" />
  </g>
  <defs
     id="defs422">
    <clipPath
       id="clip0_39_5151">
      <rect
         width="29"
         height="29"
         fill="#ffffff"
         id="rect419"
         x="0"
         y="0" />
    </clipPath>
  </defs>
</svg>
