<?xml version="1.0" encoding="UTF-8" standalone="no"?>
<svg
   width="24"
   height="18"
   viewBox="0 0 24 18"
   fill="none"
   version="1.1"
   id="svg134"
   sodipodi:docname="Subtract.svg"
   xmlns:inkscape="http://www.inkscape.org/namespaces/inkscape"
   xmlns:sodipodi="http://sodipodi.sourceforge.net/DTD/sodipodi-0.dtd"
   xmlns="http://www.w3.org/2000/svg"
   xmlns:svg="http://www.w3.org/2000/svg">
  <defs
     id="defs138" />
  <sodipodi:namedview
     id="namedview136"
     pagecolor="#ffffff"
     bordercolor="#000000"
     borderopacity="0.25"
     inkscape:showpageshadow="2"
     inkscape:pageopacity="0.0"
     inkscape:pagecheckerboard="0"
     inkscape:deskcolor="#d1d1d1"
     showgrid="false" />
  <path
     fill-rule="evenodd"
     clip-rule="evenodd"
     d="m 21.7982,0 c 0.7191,0 1.3577,0.335517 1.7595,0.854479 L 11.8876,10.3802 0.321426,1.02746 C 0.708144,0.411282 1.40564,0 2.20183,0 Z M 0,15.8571 V 2.71775 L 8.29903,9.42857 0.0171078,16.1256 C 0.00581906,16.0376 0,15.948 0,15.8571 Z m 0.758997,1.6188 C 1.14542,17.8024 1.64991,18 2.20183,18 H 21.7982 c 0.4743,0 0.9137,-0.146 1.2731,-0.3944 l -8.8187,-7.1982 -1.5858,1.2945 c -0.4485,0.3661 -1.1019,0.3675 -1.5521,0.0035 L 9.50491,10.4037 Z M 15.4519,9.42857 23.9398,16.3568 C 23.9792,16.1965 24,16.0292 24,15.8571 V 2.45122 Z"
     fill="#162f79"
     id="path132" />
</svg>
